<?xml version="1.0" encoding="UTF-8" standalone="no"?>
<!-- Created with Inkscape (http://www.inkscape.org/) -->

<svg
   width="32mm"
   height="32mm"
   viewBox="0 0 32 32"
   version="1.1"
   id="svg2179"
   inkscape:version="1.1.2 (0a00cf5339, 2022-02-04, custom)"
   sodipodi:docname="bold.svg"
   xmlns:inkscape="http://www.inkscape.org/namespaces/inkscape"
   xmlns:sodipodi="http://sodipodi.sourceforge.net/DTD/sodipodi-0.dtd"
   xmlns="http://www.w3.org/2000/svg"
   xmlns:svg="http://www.w3.org/2000/svg">
  <sodipodi:namedview
     id="namedview2181"
     pagecolor="#000000"
     bordercolor="#666666"
     borderopacity="1.0"
     inkscape:pageshadow="2"
     inkscape:pageopacity="0"
     inkscape:pagecheckerboard="0"
     inkscape:document-units="mm"
     showgrid="true"
     inkscape:zoom="3.1647592"
     inkscape:cx="55.928426"
     inkscape:cy="62.879982"
     inkscape:window-width="1896"
     inkscape:window-height="958"
     inkscape:window-x="12"
     inkscape:window-y="12"
     inkscape:window-maximized="1"
     inkscape:current-layer="layer1">
    <inkscape:grid
       type="xygrid"
       id="grid2240" />
  </sodipodi:namedview>
  <defs
     id="defs2176">
    <rect
       x="25"
       y="30"
       width="110"
       height="85"
       id="rect3652" />
  </defs>
  <g
     inkscape:label="Layer 1"
     inkscape:groupmode="layer"
     id="layer1">
    <g
       aria-label="B"
       transform="matrix(0.76478105,0,0,0.76478105,-13.269301,-23.335904)"
       id="text3650"
       style="font-weight:bold;font-size:40px;line-height:1.25;font-family:'Open Sans';-inkscape-font-specification:'Open Sans Bold';white-space:pre;shape-inside:url(#rect3652);fill:#ffffff">
      <path
         d="m 28.59375,36.887275 h 8.886719 q 6.074218,0 8.808593,1.738281 2.753907,1.71875 2.753907,5.488281 0,2.558594 -1.210938,4.199219 -1.191406,1.640625 -3.183594,1.972656 v 0.195313 q 2.714844,0.605468 3.90625,2.265625 1.210938,1.660156 1.210938,4.414062 0,3.90625 -2.832031,6.09375 -2.8125,2.1875 -7.65625,2.1875 H 28.59375 Z m 6.054687,11.308593 h 3.515625 q 2.460938,0 3.554688,-0.761718 1.113281,-0.761719 1.113281,-2.519532 0,-1.640625 -1.210937,-2.34375 -1.191407,-0.722656 -3.789063,-0.722656 h -3.183594 z m 0,4.804688 v 7.441406 h 3.945313 q 2.5,0 3.691406,-0.957031 1.191406,-0.957031 1.191406,-2.929688 0,-3.554687 -5.078125,-3.554687 z"
         id="path9860" />
    </g>
  </g>
</svg>
