<?xml version="1.0" encoding="UTF-8" standalone="no"?>
<!-- Created with Inkscape (http://www.inkscape.org/) -->

<svg
   width="32mm"
   height="32mm"
   viewBox="0 0 32 32"
   version="1.1"
   id="svg20067"
   inkscape:version="1.1.2 (0a00cf5339, 2022-02-04, custom)"
   sodipodi:docname="underline.svg"
   xmlns:inkscape="http://www.inkscape.org/namespaces/inkscape"
   xmlns:sodipodi="http://sodipodi.sourceforge.net/DTD/sodipodi-0.dtd"
   xmlns="http://www.w3.org/2000/svg"
   xmlns:svg="http://www.w3.org/2000/svg">
  <sodipodi:namedview
     id="namedview20069"
     pagecolor="#000000"
     bordercolor="#666666"
     borderopacity="1.0"
     inkscape:pageshadow="2"
     inkscape:pageopacity="0"
     inkscape:pagecheckerboard="0"
     inkscape:document-units="mm"
     showgrid="true"
     inkscape:zoom="3.1647592"
     inkscape:cx="18.010849"
     inkscape:cy="54.348527"
     inkscape:window-width="1896"
     inkscape:window-height="958"
     inkscape:window-x="12"
     inkscape:window-y="12"
     inkscape:window-maximized="1"
     inkscape:current-layer="layer1">
    <inkscape:grid
       type="xygrid"
       id="grid20128" />
  </sodipodi:namedview>
  <defs
     id="defs20064">
    <rect
       x="10"
       y="10"
       width="100"
       height="95"
       id="rect22332" />
  </defs>
  <g
     inkscape:label="Layer 1"
     inkscape:groupmode="layer"
     id="layer1">
    <g
       id="g32508">
      <g
         aria-label="U"
         transform="matrix(0.61816288,0,0,0.61816288,-0.31076519,-5.2506726)"
         id="text22330"
         style="font-size:40px;line-height:1.25;white-space:pre;shape-inside:url(#rect22332);fill:#ffffff">
        <path
           d="m 35.6,36.315007 q 0,2.96 -1.2,5.36 -1.2,2.36 -3.68,3.76 -2.44,1.36 -6.24,1.36 -5.32,0 -8.12,-2.88 -2.76,-2.92 -2.76,-7.68 v -18.4 h 3.6 v 18.52 q 0,3.48 1.84,5.4 1.88,1.92 5.64,1.92 3.88,0 5.6,-2.04 1.76,-2.08 1.76,-5.32 v -18.48 h 3.56 z"
           id="path32380" />
      </g>
      <rect
         style="fill:#ffffff;stroke-width:1.361"
         id="rect32423"
         width="17.197916"
         height="1.3229166"
         x="6.614583"
         y="25.135416"
         ry="0.66145831" />
    </g>
  </g>
</svg>
