<?xml version="1.0" encoding="UTF-8" standalone="no"?>
<!-- Created with Inkscape (http://www.inkscape.org/) -->

<svg
   width="32mm"
   height="32mm"
   viewBox="0 0 32 32"
   version="1.1"
   id="svg36108"
   inkscape:version="1.1.2 (0a00cf5339, 2022-02-04, custom)"
   sodipodi:docname="user.svg"
   xmlns:inkscape="http://www.inkscape.org/namespaces/inkscape"
   xmlns:sodipodi="http://sodipodi.sourceforge.net/DTD/sodipodi-0.dtd"
   xmlns="http://www.w3.org/2000/svg"
   xmlns:svg="http://www.w3.org/2000/svg">
  <sodipodi:namedview
     id="namedview36110"
     pagecolor="#000000"
     bordercolor="#666666"
     borderopacity="1.0"
     inkscape:pageshadow="2"
     inkscape:pageopacity="0"
     inkscape:pagecheckerboard="0"
     inkscape:document-units="mm"
     showgrid="true"
     inkscape:snap-bbox="false"
     inkscape:bbox-paths="true"
     inkscape:bbox-nodes="true"
     inkscape:snap-bbox-edge-midpoints="true"
     inkscape:snap-bbox-midpoints="true"
     inkscape:zoom="2.2378227"
     inkscape:cx="-54.070415"
     inkscape:cy="46.473745"
     inkscape:window-width="1896"
     inkscape:window-height="958"
     inkscape:window-x="12"
     inkscape:window-y="12"
     inkscape:window-maximized="1"
     inkscape:current-layer="layer1">
    <inkscape:grid
       type="xygrid"
       id="grid36169" />
  </sodipodi:namedview>
  <defs
     id="defs36105" />
  <g
     inkscape:label="Layer 1"
     inkscape:groupmode="layer"
     id="layer1">
    <g
       id="g39051">
      <path
         id="rect36840"
         style="fill:#ffffff;fill-opacity:1;stroke:none;stroke-width:1.47316;stroke-miterlimit:4;stroke-dasharray:none;stroke-opacity:1"
         d="m 25.597256,1.8142856 c -0.371028,0 -0.669726,0.2986981 -0.669726,0.6697266 v 3.9226842 h -3.827009 c -0.424033,0 -0.765402,0.3413692 -0.765402,0.7654018 0,0.4240326 0.341369,0.7654018 0.765402,0.7654018 h 3.827009 v 3.922684 c 0,0.371029 0.298698,0.669727 0.669726,0.669727 h 0.191351 c 0.371028,0 0.669726,-0.298698 0.669726,-0.669727 V 7.9375 h 3.82701 c 0.424032,0 0.765401,-0.3413692 0.765401,-0.7654018 0,-0.4240326 -0.341369,-0.7654018 -0.765401,-0.7654018 h -3.82701 V 2.4840122 c 0,-0.3710285 -0.298698,-0.6697266 -0.669726,-0.6697266 z" />
      <circle
         style="fill:#ffffff;fill-opacity:1;stroke:none;stroke-width:1.85734;stroke-miterlimit:4;stroke-dasharray:none;stroke-opacity:1"
         id="path37051"
         cx="16.424549"
         cy="11.068794"
         r="4.5134106" />
      <path
         id="path36193"
         style="color:#000000;fill:#ffffff;stroke-width:3.77953;-inkscape-stroke:none"
         d="M 62.427734,7.4257812 C 33.423533,7.4257812 9.8554687,30.995798 9.8554688,60 c 0,29.0042 23.5680642,52.57422 52.5722652,52.57422 28.334281,0 51.479006,-22.494646 52.533206,-50.57422 H 109.8125 C 108.76632,87.293361 87.98151,107.42773 62.427734,107.42773 36.20352,107.42773 15,86.224214 15,60 15,33.775785 36.20352,12.572266 62.427734,12.572266 c 0.191173,0 0.381633,0.0036 0.572266,0.0059 V 7.4335938 c -0.190856,-0.00205 -0.380931,-0.00781 -0.572266,-0.00781 z"
         transform="scale(0.26458333)" />
      <path
         id="path37812"
         style="color:#000000;fill:#ffffff;stroke-width:3.77953;-inkscape-stroke:none"
         d="m 63.650391,62.560547 c -17.807338,10e-7 -33.726392,11.100555 -39.88086,27.810547 l 0.769531,-0.01367 C 24.345899,90.550277 24.164649,90.762078 24,91 c 0.555451,0.5943 1.017782,1.177484 1.582031,1.851562 0.372435,0.444926 0.841442,0.758921 1.148438,1.269532 0.105093,0.17481 0.112293,0.398091 0.224609,0.568359 0.04585,0.06951 0.165728,0.0544 0.22461,0.113281 0.159303,0.159304 0.211504,0.48489 0.335937,0.673828 0.179893,0.273166 0.445364,0.669973 0.673828,0.898438 0.130552,0.130552 0.409333,0.226359 0.560547,0.333984 0.714494,0.508543 1.517819,0.954506 2.224609,1.490235 0.85947,0.65145 -0.281119,-0.164152 0.333985,0.445312 0.03133,0.03103 0.424911,0.222473 0.476562,0.251953 0.124589,0.07155 0.244746,0.149435 0.367188,0.22461 0.07511,0.08409 0.130091,0.190422 0.224609,0.251953 0.210293,0.136894 0.485599,0.139613 0.708985,0.253906 0.867425,0.443767 1.624704,1.048677 2.488281,1.480467 0.139597,0.0698 0.301552,0.053 0.447265,0.11133 0.582494,0.233 1.141977,0.65488 1.708985,0.92383 0.481144,0.22815 0.998595,0.37224 1.486328,0.58594 1.127259,0.49393 2.333088,0.95837 3.404297,1.49609 0.09611,0.0482 0.220256,-0.034 0.322265,0 0.127408,0.0425 0.133733,0.28997 0.335938,0.22266 0.405978,0.10148 0.779502,0.27598 1.216797,0.43945 0.557881,0.20855 1.176234,0.32417 1.714844,0.5918 0.614449,0.30531 1.176537,0.77751 1.8125,1.0332 0.434426,0.17465 1.020131,0.16865 1.476562,0.33594 1.84261,0.67531 3.809912,1.10393 5.740234,1.49218 0.820438,0.16502 1.658455,0.51752 2.5,0.58204 1.358684,0.10412 2.853238,0.26804 4.19336,0 0.319736,-0.0639 0.690117,0.0789 1.005859,0 1.101441,-0.27537 2.265901,-0.46906 3.376953,-0.67969 0.793308,-0.15047 1.620116,-0.0916 2.40625,-0.22266 0.538175,-0.0897 0.160656,0.12786 0.8125,0 0.08583,-0.0169 0.137731,-0.11788 0.222656,-0.13867 0.330668,-0.0815 0.667441,-0.0532 1.00586,-0.11133 0.127521,-0.0219 0.23576,-0.11675 0.363281,-0.13867 0.400876,-0.0689 0.951822,0.13092 1.339844,0 0.962113,-0.32459 2.073435,-0.20095 3.087891,-0.33984 1.041679,-0.14261 2.201304,-0.42793 3.169921,-0.8418 1.698497,-0.72541 -0.373547,-0.008 1.53711,-0.73242 0.163918,-0.0622 0.347157,-0.0663 0.505859,-0.14063 0.50202,-0.23537 0.958766,-0.61615 1.462891,-0.86719 1.129028,-0.5622 2.387034,-0.97133 3.402343,-1.73046 0.310258,-0.23198 0.767831,-0.52143 1.035157,-0.8086 0.05673,-0.061 0.05244,-0.16572 0.111328,-0.22461 0.205141,-0.20513 0.554794,-0.2745 0.785156,-0.44726 0.538311,-0.40374 1.103621,-0.73061 1.708985,-1.03516 0.68844,-0.34635 1.47113,-0.509249 2.166015,-0.845702 0.432355,-0.209337 0.839896,-0.494255 1.273438,-0.699219 0.01486,-0.007 0.662301,-0.214027 0.679687,-0.22461 0.278941,-0.166783 0.531807,-0.418693 0.810547,-0.585937 0.305677,-0.183428 0.738941,-0.224652 1.03125,-0.447266 0.274556,-0.209102 0.581485,-0.537832 0.892578,-0.693359 0.06663,-0.03326 0.153857,0.02343 0.224609,0 0.13338,-0.04384 0.206325,-0.271131 0.332032,-0.333985 0.60737,-0.303685 1.347964,-0.605021 1.949218,-1.005859 0.08765,-0.05843 0.126279,-0.180136 0.222657,-0.222656 0.12511,-0.05522 0.274304,-0.04809 0.394531,-0.113281 0.378595,-0.205259 0.637379,-0.591982 0.99609,-0.833985 0.47542,-0.320753 0.63041,-0.320026 1.02344,-0.80664 0.47025,-0.582203 1.75298,-1.306643 1.59375,-2.181641 -0.13179,-0.724194 -0.47132,-1.665433 -0.98047,-2.449219 L 103,89 C 96.473929,73.010622 80.9203,62.560549 63.650391,62.560547 Z"
         transform="scale(0.26458333)" />
    </g>
  </g>
</svg>
